<mxfile host="app.diagrams.net" agent="Mozilla/5.0 (Windows NT 10.0; Win64; x64) AppleWebKit/537.36 (KHTML, like Gecko) Chrome/137.0.0.0 Safari/537.36 Edg/137.0.0.0" version="27.1.4">
  <diagram name="Page-1" id="b5b7bab2-c9e2-2cf4-8b2a-24fd1a2a6d21">
    <mxGraphModel dx="914" dy="820" grid="1" gridSize="10" guides="1" tooltips="1" connect="1" arrows="1" fold="1" page="1" pageScale="1" pageWidth="827" pageHeight="1169" background="none" math="0" shadow="0">
      <root>
        <mxCell id="0" />
        <mxCell id="1" parent="0" />
        <mxCell id="L2ADHCGbDqvgz2DQ5tKt-9" style="rounded=0;orthogonalLoop=1;jettySize=auto;html=1;" parent="1" source="L2ADHCGbDqvgz2DQ5tKt-1" target="L2ADHCGbDqvgz2DQ5tKt-5" edge="1">
          <mxGeometry relative="1" as="geometry" />
        </mxCell>
        <mxCell id="L2ADHCGbDqvgz2DQ5tKt-23" style="rounded=0;orthogonalLoop=1;jettySize=auto;html=1;dashed=1;dashPattern=8 8;" parent="1" source="L2ADHCGbDqvgz2DQ5tKt-1" target="L2ADHCGbDqvgz2DQ5tKt-4" edge="1">
          <mxGeometry relative="1" as="geometry" />
        </mxCell>
        <mxCell id="L2ADHCGbDqvgz2DQ5tKt-1" value="Обновление данных" style="shape=module;align=left;spacingLeft=20;align=center;verticalAlign=top;whiteSpace=wrap;html=1;" parent="1" vertex="1">
          <mxGeometry x="190" y="270" width="160" height="50" as="geometry" />
        </mxCell>
        <mxCell id="L2ADHCGbDqvgz2DQ5tKt-4" value="База данных" style="shape=module;align=left;spacingLeft=20;align=center;verticalAlign=top;whiteSpace=wrap;html=1;" parent="1" vertex="1">
          <mxGeometry x="190" y="180" width="160" height="50" as="geometry" />
        </mxCell>
        <mxCell id="L2ADHCGbDqvgz2DQ5tKt-16" style="rounded=0;orthogonalLoop=1;jettySize=auto;html=1;dashed=1;dashPattern=8 8;" parent="1" source="hPIvbqn7ZOuLeZiAAC6F-2" target="L2ADHCGbDqvgz2DQ5tKt-11" edge="1">
          <mxGeometry relative="1" as="geometry" />
        </mxCell>
        <mxCell id="L2ADHCGbDqvgz2DQ5tKt-5" value="" style="ellipse;whiteSpace=wrap;html=1;aspect=fixed;" parent="1" vertex="1">
          <mxGeometry x="160" y="370" width="40" height="40" as="geometry" />
        </mxCell>
        <mxCell id="L2ADHCGbDqvgz2DQ5tKt-6" value="API профиля" style="text;html=1;align=center;verticalAlign=middle;whiteSpace=wrap;rounded=0;" parent="1" vertex="1">
          <mxGeometry x="70" y="360" width="80" height="30" as="geometry" />
        </mxCell>
        <mxCell id="L2ADHCGbDqvgz2DQ5tKt-11" value="Пользователь" style="shape=umlActor;verticalLabelPosition=bottom;verticalAlign=top;html=1;" parent="1" vertex="1">
          <mxGeometry x="250" y="510" width="30" height="60" as="geometry" />
        </mxCell>
        <mxCell id="5JhgTpHDQSDhKomZQLTf-4" value="Ввод новых данных" style="text;html=1;align=center;verticalAlign=middle;whiteSpace=wrap;rounded=0;" parent="1" vertex="1">
          <mxGeometry x="230" y="360" width="130" height="30" as="geometry" />
        </mxCell>
        <mxCell id="hPIvbqn7ZOuLeZiAAC6F-2" value="" style="ellipse;whiteSpace=wrap;html=1;aspect=fixed;" vertex="1" parent="1">
          <mxGeometry x="374" y="370" width="40" height="40" as="geometry" />
        </mxCell>
        <mxCell id="hPIvbqn7ZOuLeZiAAC6F-3" style="rounded=0;orthogonalLoop=1;jettySize=auto;html=1;" edge="1" parent="1" source="L2ADHCGbDqvgz2DQ5tKt-5" target="hPIvbqn7ZOuLeZiAAC6F-2">
          <mxGeometry relative="1" as="geometry">
            <mxPoint x="302" y="380" as="sourcePoint" />
            <mxPoint x="250" y="435" as="targetPoint" />
          </mxGeometry>
        </mxCell>
      </root>
    </mxGraphModel>
  </diagram>
</mxfile>
